<svg xmlns="http://www.w3.org/2000/svg" viewBox="80 64 108 108" role="img" aria-label="TicoWild macaw">
  <defs>
    <linearGradient id="tile" x1="0" y1="0" x2="0" y2="1">
      <stop offset="0" stop-color="#2F6BEB"/>
      <stop offset="1" stop-color="#0A2E8F"/>
    </linearGradient>
    <clipPath id="round-tile">
      <rect x="80" y="64" width="108" height="108" rx="28"/>
    </clipPath>
  </defs>
  <rect x="80" y="64" width="108" height="108" rx="28" fill="url(#tile)"/>
  <g clip-path="url(#round-tile)">
    <rect x="80" y="64" width="108" height="38" fill="#FFFFFF" opacity=".08"/>
    <path d="M120 100C104 104 98 124 106 144C112 158 128 162 140 156C138 148 138 136 142 128C146 118 150 108 144 100C136 94 128 98 120 100Z" fill="#0A1F5C"/>
    <path d="M124 96C118 88 128 84 134 90C130 92 126 94 124 96Z" fill="#0A1F5C"/>
    <path d="M140 112C160 108 176 116 174 128C172 138 158 138 148 132C142 128 140 120 140 112Z" fill="#FFD000"/>
    <path d="M148 132C156 136 168 136 174 130C172 140 158 144 148 138Z" fill="#F0A400"/>
    <path d="M140 122C150 122 160 124 166 128" fill="none" stroke="#0A1F5C" stroke-width="2.5" stroke-linecap="round"/>
    <circle cx="126" cy="120" r="7" fill="#22D3EE"/>
    <circle cx="126" cy="120" r="2.8" fill="#0B1A2E"/>
  </g>
</svg>
